ffmpeg started on 2026-04-01 at 11:44:20
Report written to "D:\Convert\FFMetrics\reports\psnr_report-6.txt"
Log level: 32
Command line:
ffmpeg -hide_banner -nostdin -r 24000/1001 -i "F:\\Convert\\files\\[DC] Make Heroine ga Oosugiru - 07_Telegram_HEVC(274).mkv" -r 24000/1001 -i "F:\\Convert\\files\\[DC] Make Heroine ga Oosugiru - 07_Telegram.mp4" -lavfi "[0:v]settb=AVTB,setpts=PTS-STARTPTS,format=pix_fmts=yuv420p10le,fps=24000/1001,scale=1920:1080:flags=lanczos:param0=3:out_range=limited:out_color_matrix=bt709:out_chroma_loc=left,setsar=1/1,setdar=(1920/1080)*(1/1),colorspace=format=yuv420p10:range=tv:primaries=bt709:trc=bt709:space=bt709:fast=0[main];[1:v]settb=AVTB,setpts=PTS-STARTPTS,format=pix_fmts=yuv420p,fps=24000/1001,scale=1920:1080:flags=lanczos:param0=3:out_range=limited:out_color_matrix=bt709:out_chroma_loc=left,setsar=1/1,setdar=(1920/1080)*(1/1),colorspace=format=yuv420p:range=tv:primaries=bt709:trc=bt709:space=bt709:fast=0[ref];[main][ref]psnr=eof_action=endall:stats_file='D\\:/Convert/FFMetrics/logs/psnr_logfile-6.txt'" -f null -
Input #0, matroska,webm, from 'F:\Convert\files\[DC] Make Heroine ga Oosugiru - 07_Telegram_HEVC(274).mkv':
  Metadata:
    COMPATIBLE_BRANDS: isomiso2avc1mp41
    MAJOR_BRAND     : isom
    MINOR_VERSION   : 512
    ENCODER         : Lavf61.7.100
  Duration: 00:24:06.79, start: -0.021000, bitrate: 987 kb/s
  Stream #0:0: Video: hevc (Main 10), yuv420p10le(tv, bt709, progressive), 1920x1080 [SAR 1:1 DAR 16:9], 23.98 fps, 23.98 tbr, 1k tbn (default)
      Metadata:
        HANDLER_NAME    : VideoHandler
        VENDOR_ID       : [0][0][0][0]
        ENCODER         : Lavc61.19.100 libx265
        BPS             : 790085
        DURATION        : 00:24:06.569708333
        NUMBER_OF_FRAMES: 34683
        NUMBER_OF_BYTES : 142864210
        _STATISTICS_WRITING_APP: mkvpropedit v94.0 ('Initiate') 64-bit
        _STATISTICS_WRITING_DATE_UTC: 2026-03-30 12:51:20
        _STATISTICS_TAGS: BPS DURATION NUMBER_OF_FRAMES NUMBER_OF_BYTES
  Stream #0:1: Audio: aac (LC), 48000 Hz, stereo, fltp (default)
      Metadata:
        HANDLER_NAME    : SoundHandler
        VENDOR_ID       : [0][0][0][0]
        ENCODER         : Lavc61.19.100 aac
        BPS             : 193194
        DURATION        : 00:24:06.784000000
        NUMBER_OF_FRAMES: 67819
        NUMBER_OF_BYTES : 34938755
        _STATISTICS_WRITING_APP: mkvpropedit v94.0 ('Initiate') 64-bit
        _STATISTICS_WRITING_DATE_UTC: 2026-03-30 12:51:20
        _STATISTICS_TAGS: BPS DURATION NUMBER_OF_FRAMES NUMBER_OF_BYTES
Input #1, mov,mp4,m4a,3gp,3g2,mj2, from 'F:\Convert\files\[DC] Make Heroine ga Oosugiru - 07_Telegram.mp4':
  Metadata:
    major_brand     : isom
    minor_version   : 512
    compatible_brands: isomiso2avc1mp41
    encoder         : Lavf60.16.100
  Duration: 00:24:06.74, start: 0.000000, bitrate: 3764 kb/s
  Stream #1:0[0x1](und): Video: h264 (High) (avc1 / 0x31637661), yuv420p(tv, bt709, progressive), 1920x1080 [SAR 1:1 DAR 16:9], 3616 kb/s, 23.98 fps, 23.98 tbr, 24k tbn (default)
      Metadata:
        handler_name    : VideoHandler
        vendor_id       : [0][0][0][0]
        encoder         : Lavc60.31.102 h264_qsv
  Stream #1:1[0x2](und): Audio: aac (HE-AACv2) (mp4a / 0x6134706D), 48000 Hz, stereo, fltp, 144 kb/s (default)
      Metadata:
        handler_name    : SoundHandler
        vendor_id       : [0][0][0][0]
Stream mapping:
  Stream #0:0 (hevc) -> settb:default
  Stream #1:0 (h264) -> settb:default
  psnr:default -> Stream #0:0 (wrapped_avframe)
  Stream #0:1 -> #0:1 (aac (native) -> pcm_s16le (native))
Output #0, null, to 'pipe:':
  Metadata:
    COMPATIBLE_BRANDS: isomiso2avc1mp41
    MAJOR_BRAND     : isom
    MINOR_VERSION   : 512
    encoder         : Lavf61.7.100
  Stream #0:0: Video: wrapped_avframe, yuv420p10le(tv, bt709, progressive), 1920x1080 [SAR 1:1 DAR 16:9], q=2-31, 200 kb/s, 23.98 fps, 23.98 tbn
      Metadata:
        encoder         : Lavc61.19.100 wrapped_avframe
  Stream #0:1: Audio: pcm_s16le, 48000 Hz, stereo, s16, 1536 kb/s (default)
      Metadata:
        HANDLER_NAME    : SoundHandler
        VENDOR_ID       : [0][0][0][0]
        _STATISTICS_TAGS: BPS DURATION NUMBER_OF_FRAMES NUMBER_OF_BYTES
        BPS             : 193194
        DURATION        : 00:24:06.784000000
        NUMBER_OF_FRAMES: 67819
        NUMBER_OF_BYTES : 34938755
        _STATISTICS_WRITING_APP: mkvpropedit v94.0 ('Initiate') 64-bit
        _STATISTICS_WRITING_DATE_UTC: 2026-03-30 12:51:20
        encoder         : Lavc61.19.100 pcm_s16le
frame=  113 fps=0.0 q=-0.0 size=N/A time=00:00:04.71 bitrate=N/A speed=9.12x    frame=  299 fps=291 q=-0.0 size=N/A time=00:00:12.47 bitrate=N/A speed=12.1x    frame=  483 fps=314 q=-0.0 size=N/A time=00:00:20.14 bitrate=N/A speed=13.1x    frame=  660 fps=322 q=-0.0 size=N/A time=00:00:27.52 bitrate=N/A speed=13.4x    frame=  851 fps=330 q=-0.0 size=N/A time=00:00:35.49 bitrate=N/A speed=13.8x    frame=  987 fps=320 q=-0.0 size=N/A time=00:00:41.16 bitrate=N/A speed=13.3x    frame= 1143 fps=317 q=-0.0 size=N/A time=00:00:47.67 bitrate=N/A speed=13.2x    frame= 1295 fps=314 q=-0.0 size=N/A time=00:00:54.01 bitrate=N/A speed=13.1x    frame= 1448 fps=312 q=-0.0 size=N/A time=00:01:00.39 bitrate=N/A speed=  13x    frame= 1586 fps=308 q=-0.0 size=N/A time=00:01:06.14 bitrate=N/A speed=12.8x    frame= 1725 fps=304 q=-0.0 size=N/A time=00:01:11.94 bitrate=N/A speed=12.7x    frame= 1890 fps=306 q=-0.0 size=N/A time=00:01:18.82 bitrate=N/A speed=12.8x    frame= 2045 fps=306 q=-0.0 size=N/A time=00:01:25.29 bitrate=N/A speed=12.7x    frame= 2159 fps=299 q=-0.0 size=N/A time=00:01:30.04 bitrate=N/A speed=12.5x    frame= 2310 fps=299 q=-0.0 size=N/A time=00:01:36.34 bitrate=N/A speed=12.5x    frame= 2448 fps=297 q=-0.0 size=N/A time=00:01:42.10 bitrate=N/A speed=12.4x    frame= 2582 fps=294 q=-0.0 size=N/A time=00:01:47.69 bitrate=N/A speed=12.3x    frame= 2749 fps=296 q=-0.0 size=N/A time=00:01:54.65 bitrate=N/A speed=12.4x    frame= 2922 fps=298 q=-0.0 size=N/A time=00:02:01.87 bitrate=N/A speed=12.4x    frame= 3107 fps=301 q=-0.0 size=N/A time=00:02:09.58 bitrate=N/A speed=12.6x    frame= 3297 fps=305 q=-0.0 size=N/A time=00:02:17.51 bitrate=N/A speed=12.7x    frame= 3494 fps=308 q=-0.0 size=N/A time=00:02:25.72 bitrate=N/A speed=12.8x    frame= 3681 fps=310 q=-0.0 size=N/A time=00:02:33.52 bitrate=N/A speed=12.9x    frame= 3876 fps=313 q=-0.0 size=N/A time=00:02:41.66 bitrate=N/A speed=13.1x    frame= 4070 fps=316 q=-0.0 size=N/A time=00:02:49.75 bitrate=N/A speed=13.2x    frame= 4259 fps=318 q=-0.0 size=N/A time=00:02:57.63 bitrate=N/A speed=13.3x    frame= 4453 fps=320 q=-0.0 size=N/A time=00:03:05.72 bitrate=N/A speed=13.3x    frame= 4652 fps=322 q=-0.0 size=N/A time=00:03:14.02 bitrate=N/A speed=13.4x    frame= 4841 fps=324 q=-0.0 size=N/A time=00:03:21.91 bitrate=N/A speed=13.5x    frame= 5025 fps=325 q=-0.0 size=N/A time=00:03:29.58 bitrate=N/A speed=13.6x    frame= 5220 fps=326 q=-0.0 size=N/A time=00:03:37.71 bitrate=N/A speed=13.6x    frame= 5413 fps=328 q=-0.0 size=N/A time=00:03:45.76 bitrate=N/A speed=13.7x    frame= 5603 fps=329 q=-0.0 size=N/A time=00:03:53.69 bitrate=N/A speed=13.7x    frame= 5791 fps=330 q=-0.0 size=N/A time=00:04:01.53 bitrate=N/A speed=13.8x    frame= 5989 fps=332 q=-0.0 size=N/A time=00:04:09.79 bitrate=N/A speed=13.8x    frame= 6182 fps=333 q=-0.0 size=N/A time=00:04:17.84 bitrate=N/A speed=13.9x    frame= 6370 fps=333 q=-0.0 size=N/A time=00:04:25.68 bitrate=N/A speed=13.9x    frame= 6562 fps=334 q=-0.0 size=N/A time=00:04:33.69 bitrate=N/A speed=13.9x    frame= 6748 fps=335 q=-0.0 size=N/A time=00:04:41.44 bitrate=N/A speed=  14x    frame= 6939 fps=336 q=-0.0 size=N/A time=00:04:49.41 bitrate=N/A speed=  14x    frame= 7130 fps=337 q=-0.0 size=N/A time=00:04:57.38 bitrate=N/A speed=  14x    frame= 7318 fps=337 q=-0.0 size=N/A time=00:05:05.22 bitrate=N/A speed=14.1x    frame= 7503 fps=338 q=-0.0 size=N/A time=00:05:12.93 bitrate=N/A speed=14.1x    frame= 7676 fps=338 q=-0.0 size=N/A time=00:05:20.15 bitrate=N/A speed=14.1x    frame= 7856 fps=338 q=-0.0 size=N/A time=00:05:27.66 bitrate=N/A speed=14.1x    frame= 8044 fps=339 q=-0.0 size=N/A time=00:05:35.50 bitrate=N/A speed=14.1x    frame= 8236 fps=340 q=-0.0 size=N/A time=00:05:43.50 bitrate=N/A speed=14.2x    frame= 8429 fps=340 q=-0.0 size=N/A time=00:05:51.55 bitrate=N/A speed=14.2x    frame= 8614 fps=341 q=-0.0 size=N/A time=00:05:59.27 bitrate=N/A speed=14.2x    frame= 8801 fps=341 q=-0.0 size=N/A time=00:06:07.07 bitrate=N/A speed=14.2x    frame= 8989 fps=341 q=-0.0 size=N/A time=00:06:14.91 bitrate=N/A speed=14.2x    frame= 9181 fps=342 q=-0.0 size=N/A time=00:06:22.92 bitrate=N/A speed=14.3x    frame= 9367 fps=343 q=-0.0 size=N/A time=00:06:30.68 bitrate=N/A speed=14.3x    frame= 9554 fps=343 q=-0.0 size=N/A time=00:06:38.48 bitrate=N/A speed=14.3x    frame= 9735 fps=343 q=-0.0 size=N/A time=00:06:46.03 bitrate=N/A speed=14.3x    frame= 9928 fps=344 q=-0.0 size=N/A time=00:06:54.08 bitrate=N/A speed=14.3x    frame=10116 fps=344 q=-0.0 size=N/A time=00:07:01.92 bitrate=N/A speed=14.3x    frame=10303 fps=344 q=-0.0 size=N/A time=00:07:09.72 bitrate=N/A speed=14.4x    frame=10488 fps=344 q=-0.0 size=N/A time=00:07:17.43 bitrate=N/A speed=14.4x    frame=10676 fps=345 q=-0.0 size=N/A time=00:07:25.27 bitrate=N/A speed=14.4x    frame=10867 fps=345 q=-0.0 size=N/A time=00:07:33.24 bitrate=N/A speed=14.4x    frame=11057 fps=345 q=-0.0 size=N/A time=00:07:41.16 bitrate=N/A speed=14.4x    frame=11235 fps=345 q=-0.0 size=N/A time=00:07:48.59 bitrate=N/A speed=14.4x    frame=11416 fps=346 q=-0.0 size=N/A time=00:07:56.14 bitrate=N/A speed=14.4x    frame=11613 fps=346 q=-0.0 size=N/A time=00:08:04.35 bitrate=N/A speed=14.4x    frame=11794 fps=346 q=-0.0 size=N/A time=00:08:11.90 bitrate=N/A speed=14.4x    frame=11974 fps=346 q=-0.0 size=N/A time=00:08:19.41 bitrate=N/A speed=14.4x    frame=12141 fps=346 q=-0.0 size=N/A time=00:08:26.38 bitrate=N/A speed=14.4x    frame=12323 fps=346 q=-0.0 size=N/A time=00:08:33.97 bitrate=N/A speed=14.4x    frame=12498 fps=346 q=-0.0 size=N/A time=00:08:41.27 bitrate=N/A speed=14.4x    frame=12689 fps=346 q=-0.0 size=N/A time=00:08:49.23 bitrate=N/A speed=14.4x    frame=12879 fps=346 q=-0.0 size=N/A time=00:08:57.16 bitrate=N/A speed=14.4x    frame=13063 fps=346 q=-0.0 size=N/A time=00:09:04.83 bitrate=N/A speed=14.4x    frame=13243 fps=346 q=-0.0 size=N/A time=00:09:12.34 bitrate=N/A speed=14.4x    frame=13425 fps=346 q=-0.0 size=N/A time=00:09:19.93 bitrate=N/A speed=14.4x    frame=13606 fps=347 q=-0.0 size=N/A time=00:09:27.48 bitrate=N/A speed=14.5x    frame=13775 fps=346 q=-0.0 size=N/A time=00:09:34.53 bitrate=N/A speed=14.4x    frame=13955 fps=346 q=-0.0 size=N/A time=00:09:42.03 bitrate=N/A speed=14.4x    frame=14128 fps=346 q=-0.0 size=N/A time=00:09:49.25 bitrate=N/A speed=14.4x    frame=14314 fps=346 q=-0.0 size=N/A time=00:09:57.01 bitrate=N/A speed=14.4x    frame=14502 fps=347 q=-0.0 size=N/A time=00:10:04.85 bitrate=N/A speed=14.5x    frame=14670 fps=346 q=-0.0 size=N/A time=00:10:11.86 bitrate=N/A speed=14.4x    frame=14860 fps=347 q=-0.0 size=N/A time=00:10:19.78 bitrate=N/A speed=14.5x    frame=15046 fps=347 q=-0.0 size=N/A time=00:10:27.54 bitrate=N/A speed=14.5x    frame=15198 fps=346 q=-0.0 size=N/A time=00:10:33.88 bitrate=N/A speed=14.4x    frame=15382 fps=346 q=-0.0 size=N/A time=00:10:41.55 bitrate=N/A speed=14.4x    frame=15565 fps=346 q=-0.0 size=N/A time=00:10:49.19 bitrate=N/A speed=14.4x    frame=15751 fps=347 q=-0.0 size=N/A time=00:10:56.94 bitrate=N/A speed=14.5x    frame=15936 fps=347 q=-0.0 size=N/A time=00:11:04.66 bitrate=N/A speed=14.5x    frame=16108 fps=347 q=-0.0 size=N/A time=00:11:11.83 bitrate=N/A speed=14.5x    frame=16292 fps=347 q=-0.0 size=N/A time=00:11:19.51 bitrate=N/A speed=14.5x    frame=16466 fps=347 q=-0.0 size=N/A time=00:11:26.76 bitrate=N/A speed=14.5x    frame=16655 fps=347 q=-0.0 size=N/A time=00:11:34.65 bitrate=N/A speed=14.5x    frame=16848 fps=347 q=-0.0 size=N/A time=00:11:42.70 bitrate=N/A speed=14.5x    frame=17030 fps=347 q=-0.0 size=N/A time=00:11:50.29 bitrate=N/A speed=14.5x    frame=17218 fps=347 q=-0.0 size=N/A time=00:11:58.13 bitrate=N/A speed=14.5x    frame=17401 fps=347 q=-0.0 size=N/A time=00:12:05.76 bitrate=N/A speed=14.5x    frame=17595 fps=348 q=-0.0 size=N/A time=00:12:13.85 bitrate=N/A speed=14.5x    frame=17774 fps=348 q=-0.0 size=N/A time=00:12:21.32 bitrate=N/A speed=14.5x    frame=17937 fps=347 q=-0.0 size=N/A time=00:12:28.12 bitrate=N/A speed=14.5x    frame=18119 fps=347 q=-0.0 size=N/A time=00:12:35.71 bitrate=N/A speed=14.5x    frame=18300 fps=347 q=-0.0 size=N/A time=00:12:43.26 bitrate=N/A speed=14.5x    frame=18483 fps=347 q=-0.0 size=N/A time=00:12:50.89 bitrate=N/A speed=14.5x    frame=18668 fps=348 q=-0.0 size=N/A time=00:12:58.61 bitrate=N/A speed=14.5x    frame=18860 fps=348 q=-0.0 size=N/A time=00:13:06.61 bitrate=N/A speed=14.5x    frame=19054 fps=348 q=-0.0 size=N/A time=00:13:14.71 bitrate=N/A speed=14.5x    frame=19240 fps=348 q=-0.0 size=N/A time=00:13:22.46 bitrate=N/A speed=14.5x    frame=19442 fps=349 q=-0.0 size=N/A time=00:13:30.89 bitrate=N/A speed=14.5x    frame=19622 fps=349 q=-0.0 size=N/A time=00:13:38.40 bitrate=N/A speed=14.5x    frame=19810 fps=349 q=-0.0 size=N/A time=00:13:46.24 bitrate=N/A speed=14.5x    frame=19997 fps=349 q=-0.0 size=N/A time=00:13:54.04 bitrate=N/A speed=14.6x    frame=20194 fps=349 q=-0.0 size=N/A time=00:14:02.25 bitrate=N/A speed=14.6x    frame=20378 fps=349 q=-0.0 size=N/A time=00:14:09.93 bitrate=N/A speed=14.6x    frame=20553 fps=349 q=-0.0 size=N/A time=00:14:17.23 bitrate=N/A speed=14.6x    frame=20732 fps=349 q=-0.0 size=N/A time=00:14:24.69 bitrate=N/A speed=14.6x    frame=20926 fps=349 q=-0.0 size=N/A time=00:14:32.78 bitrate=N/A speed=14.6x    frame=21116 fps=350 q=-0.0 size=N/A time=00:14:40.71 bitrate=N/A speed=14.6x    frame=21301 fps=350 q=-0.0 size=N/A time=00:14:48.42 bitrate=N/A speed=14.6x    frame=21494 fps=350 q=-0.0 size=N/A time=00:14:56.47 bitrate=N/A speed=14.6x    frame=21683 fps=350 q=-0.0 size=N/A time=00:15:04.36 bitrate=N/A speed=14.6x    frame=21874 fps=350 q=-0.0 size=N/A time=00:15:12.32 bitrate=N/A speed=14.6x    frame=22061 fps=350 q=-0.0 size=N/A time=00:15:20.12 bitrate=N/A speed=14.6x    frame=22256 fps=350 q=-0.0 size=N/A time=00:15:28.26 bitrate=N/A speed=14.6x    frame=22444 fps=351 q=-0.0 size=N/A time=00:15:36.10 bitrate=N/A speed=14.6x    frame=22637 fps=351 q=-0.0 size=N/A time=00:15:44.15 bitrate=N/A speed=14.6x    frame=22814 fps=351 q=-0.0 size=N/A time=00:15:51.53 bitrate=N/A speed=14.6x    frame=23005 fps=351 q=-0.0 size=N/A time=00:15:59.50 bitrate=N/A speed=14.6x    frame=23195 fps=351 q=-0.0 size=N/A time=00:16:07.42 bitrate=N/A speed=14.6x    frame=23381 fps=351 q=-0.0 size=N/A time=00:16:15.18 bitrate=N/A speed=14.6x    frame=23568 fps=351 q=-0.0 size=N/A time=00:16:22.98 bitrate=N/A speed=14.6x    frame=23768 fps=351 q=-0.0 size=N/A time=00:16:31.32 bitrate=N/A speed=14.7x    frame=23950 fps=351 q=-0.0 size=N/A time=00:16:38.91 bitrate=N/A speed=14.7x    frame=24139 fps=352 q=-0.0 size=N/A time=00:16:46.79 bitrate=N/A speed=14.7x    frame=24328 fps=352 q=-0.0 size=N/A time=00:16:54.68 bitrate=N/A speed=14.7x    frame=24521 fps=352 q=-0.0 size=N/A time=00:17:02.73 bitrate=N/A speed=14.7x    frame=24716 fps=352 q=-0.0 size=N/A time=00:17:10.86 bitrate=N/A speed=14.7x    frame=24905 fps=352 q=-0.0 size=N/A time=00:17:18.74 bitrate=N/A speed=14.7x    frame=25088 fps=352 q=-0.0 size=N/A time=00:17:26.37 bitrate=N/A speed=14.7x    frame=25277 fps=352 q=-0.0 size=N/A time=00:17:34.26 bitrate=N/A speed=14.7x    frame=25451 fps=352 q=-0.0 size=N/A time=00:17:41.51 bitrate=N/A speed=14.7x    frame=25634 fps=352 q=-0.0 size=N/A time=00:17:49.15 bitrate=N/A speed=14.7x    frame=25829 fps=352 q=-0.0 size=N/A time=00:17:57.28 bitrate=N/A speed=14.7x    frame=26027 fps=352 q=-0.0 size=N/A time=00:18:05.54 bitrate=N/A speed=14.7x    frame=26215 fps=353 q=-0.0 size=N/A time=00:18:13.38 bitrate=N/A speed=14.7x    frame=26401 fps=353 q=-0.0 size=N/A time=00:18:21.14 bitrate=N/A speed=14.7x    frame=26592 fps=353 q=-0.0 size=N/A time=00:18:29.10 bitrate=N/A speed=14.7x    frame=26787 fps=353 q=-0.0 size=N/A time=00:18:37.24 bitrate=N/A speed=14.7x    frame=26968 fps=353 q=-0.0 size=N/A time=00:18:44.79 bitrate=N/A speed=14.7x    frame=27142 fps=353 q=-0.0 size=N/A time=00:18:52.04 bitrate=N/A speed=14.7x    frame=27327 fps=353 q=-0.0 size=N/A time=00:18:59.76 bitrate=N/A speed=14.7x    frame=27510 fps=353 q=-0.0 size=N/A time=00:19:07.39 bitrate=N/A speed=14.7x    frame=27690 fps=353 q=-0.0 size=N/A time=00:19:14.90 bitrate=N/A speed=14.7x    frame=27882 fps=353 q=-0.0 size=N/A time=00:19:22.91 bitrate=N/A speed=14.7x    frame=28066 fps=353 q=-0.0 size=N/A time=00:19:30.58 bitrate=N/A speed=14.7x    frame=28248 fps=353 q=-0.0 size=N/A time=00:19:38.17 bitrate=N/A speed=14.7x    frame=28442 fps=353 q=-0.0 size=N/A time=00:19:46.26 bitrate=N/A speed=14.7x    frame=28624 fps=353 q=-0.0 size=N/A time=00:19:53.85 bitrate=N/A speed=14.7x    frame=28790 fps=353 q=-0.0 size=N/A time=00:20:00.78 bitrate=N/A speed=14.7x    frame=28942 fps=353 q=-0.0 size=N/A time=00:20:07.12 bitrate=N/A speed=14.7x    frame=29115 fps=352 q=-0.0 size=N/A time=00:20:14.33 bitrate=N/A speed=14.7x    frame=29293 fps=352 q=-0.0 size=N/A time=00:20:21.76 bitrate=N/A speed=14.7x    frame=29460 fps=352 q=-0.0 size=N/A time=00:20:28.72 bitrate=N/A speed=14.7x    frame=29634 fps=352 q=-0.0 size=N/A time=00:20:35.98 bitrate=N/A speed=14.7x    frame=29809 fps=352 q=-0.0 size=N/A time=00:20:43.28 bitrate=N/A speed=14.7x    frame=29969 fps=352 q=-0.0 size=N/A time=00:20:49.95 bitrate=N/A speed=14.7x    frame=30129 fps=352 q=-0.0 size=N/A time=00:20:56.63 bitrate=N/A speed=14.7x    frame=30321 fps=352 q=-0.0 size=N/A time=00:21:04.63 bitrate=N/A speed=14.7x    frame=30507 fps=352 q=-0.0 size=N/A time=00:21:12.39 bitrate=N/A speed=14.7x    frame=30694 fps=352 q=-0.0 size=N/A time=00:21:20.19 bitrate=N/A speed=14.7x    frame=30890 fps=352 q=-0.0 size=N/A time=00:21:28.37 bitrate=N/A speed=14.7x    frame=31079 fps=352 q=-0.0 size=N/A time=00:21:36.25 bitrate=N/A speed=14.7x    frame=31271 fps=352 q=-0.0 size=N/A time=00:21:44.26 bitrate=N/A speed=14.7x    frame=31448 fps=352 q=-0.0 size=N/A time=00:21:51.64 bitrate=N/A speed=14.7x    frame=31635 fps=352 q=-0.0 size=N/A time=00:21:59.44 bitrate=N/A speed=14.7x    frame=31823 fps=352 q=-0.0 size=N/A time=00:22:07.28 bitrate=N/A speed=14.7x    frame=32003 fps=352 q=-0.0 size=N/A time=00:22:14.79 bitrate=N/A speed=14.7x    frame=32186 fps=352 q=-0.0 size=N/A time=00:22:22.42 bitrate=N/A speed=14.7x    frame=32362 fps=352 q=-0.0 size=N/A time=00:22:29.76 bitrate=N/A speed=14.7x    frame=32521 fps=352 q=-0.0 size=N/A time=00:22:36.39 bitrate=N/A speed=14.7x    frame=32666 fps=351 q=-0.0 size=N/A time=00:22:42.44 bitrate=N/A speed=14.7x    frame=32819 fps=351 q=-0.0 size=N/A time=00:22:48.82 bitrate=N/A speed=14.6x    frame=32980 fps=351 q=-0.0 size=N/A time=00:22:55.54 bitrate=N/A speed=14.6x    frame=33161 fps=351 q=-0.0 size=N/A time=00:23:03.09 bitrate=N/A speed=14.6x    frame=33344 fps=351 q=-0.0 size=N/A time=00:23:10.72 bitrate=N/A speed=14.6x    frame=33494 fps=351 q=-0.0 size=N/A time=00:23:16.97 bitrate=N/A speed=14.6x    frame=33640 fps=350 q=-0.0 size=N/A time=00:23:23.06 bitrate=N/A speed=14.6x    frame=33764 fps=350 q=-0.0 size=N/A time=00:23:28.24 bitrate=N/A speed=14.6x    frame=33878 fps=349 q=-0.0 size=N/A time=00:23:32.99 bitrate=N/A speed=14.6x    frame=34019 fps=349 q=-0.0 size=N/A time=00:23:38.87 bitrate=N/A speed=14.5x    frame=34175 fps=348 q=-0.0 size=N/A time=00:23:45.38 bitrate=N/A speed=14.5x    frame=34308 fps=348 q=-0.0 size=N/A time=00:23:50.92 bitrate=N/A speed=14.5x    frame=34425 fps=347 q=-0.0 size=N/A time=00:23:55.80 bitrate=N/A speed=14.5x    frame=34592 fps=347 q=-0.0 size=N/A time=00:24:02.77 bitrate=N/A speed=14.5x    [Parsed_psnr_16 @ 00000177e422c3c0] PSNR y:48.997356 u:50.342933 v:50.392561 average:49.407890 min:37.951833 max:inf
[out#0/null @ 00000177d74edec0] video:14903KiB audio:271276KiB subtitle:0KiB other streams:0KiB global headers:0KiB muxing overhead: unknown
frame=34683 fps=347 q=-0.0 Lsize=N/A time=00:24:06.57 bitrate=N/A speed=14.5x    
